<?xml version="1.0" encoding="utf-8"?>
<!-- Generator: Adobe Illustrator 14.0.0, SVG Export Plug-In . SVG Version: 6.00 Build 43363)  -->
<!DOCTYPE svg PUBLIC "-//W3C//DTD SVG 1.1//EN" "http://www.w3.org/Graphics/SVG/1.1/DTD/svg11.dtd">
<svg version="1.1" id="Ebene_1" xmlns="http://www.w3.org/2000/svg" xmlns:xlink="http://www.w3.org/1999/xlink" x="0px" y="0px"
	 width="686.813px" height="380.198px" viewBox="0 0 686.813 380.198" enable-background="new 0 0 686.813 380.198"
	 xml:space="preserve">
<g>
	<rect x="206.813" y="31.714" fill-rule="evenodd" clip-rule="evenodd" fill="#E0E0E0" stroke="#000000" width="150" height="64"/>
	<text transform="matrix(1 0 0 1 256.5571 70.9146)"><tspan x="0" y="0" font-family="'ArialMT'" font-size="18">SGM</tspan><tspan x="41.001" y="0" font-family="'ArialMT'" font-size="18" letter-spacing="-4">L</tspan><tspan x="46.026" y="0" font-family="'ArialMT'" font-size="18"> </tspan></text>
</g>
<g>
	<rect x="59.813" y="161.714" fill-rule="evenodd" clip-rule="evenodd" fill="#E0E0E0" stroke="#000000" width="151" height="63"/>
	<text transform="matrix(1 0 0 1 96.3857 200.4146)"><tspan x="0" y="0" font-family="'ArialMT'" font-size="18">HTM</tspan><tspan x="38.988" y="0" font-family="'ArialMT'" font-size="18">L</tspan><tspan x="48.333" y="0" font-family="'ArialMT'" font-size="18"> 3.</tspan><tspan x="68.346" y="0" font-family="'ArialMT'" font-size="18" letter-spacing="-4">2</tspan><tspan x="73.371" y="0" font-family="'ArialMT'" font-size="18"> </tspan></text>
	<polyline fill="none" stroke="#000000" stroke-linejoin="round" stroke-miterlimit="10" points="135.313,161.714 135.313,128.714 
		281.813,128.714 281.813,97.714 	"/>
	<polygon fill-rule="evenodd" clip-rule="evenodd" points="278.813,101.714 281.813,95.714 284.813,101.714 	"/>
</g>
<g>
	<rect x="239.813" y="160.589" fill-rule="evenodd" clip-rule="evenodd" fill="#E0E0E0" stroke="#000000" width="151" height="63"/>
	<text transform="matrix(1 0 0 1 297.0576 199.2896)"><tspan x="0" y="0" font-family="'ArialMT'" font-size="18">XM</tspan><tspan x="27" y="0" font-family="'ArialMT'" font-size="18" letter-spacing="-4">L</tspan><tspan x="32.025" y="0" font-family="'ArialMT'" font-size="18"> </tspan></text>
	<polyline fill="none" stroke="#000000" stroke-linejoin="round" stroke-miterlimit="10" points="315.313,160.589 315.313,128.152 
		281.813,128.152 281.813,97.714 	"/>
</g>
<g>
	<rect x="43.296" y="277.589" fill="#E0E0E0" stroke="#000000" width="118.242" height="63"/>
	<text transform="matrix(1 0 0 1 57.3828 316.2896)"><tspan x="0" y="0" font-family="'ArialMT'" font-size="18">XHTM</tspan><tspan x="50.994" y="0" font-family="'ArialMT'" font-size="18">L</tspan><tspan x="60.339" y="0" font-family="'ArialMT'" font-size="18"> 1.</tspan><tspan x="80.352" y="0" font-family="'ArialMT'" font-size="18" letter-spacing="-4">1</tspan><tspan x="85.376" y="0" font-family="'ArialMT'" font-size="18"> </tspan></text>
	<polyline fill="none" stroke="#000000" stroke-linejoin="round" stroke-miterlimit="10" points="102.313,277.589 102.313,250.589 
		315.313,250.589 315.313,225.589 	"/>
</g>
<g>
	<rect x="169.813" y="277.589" fill-rule="evenodd" clip-rule="evenodd" fill="#E0E0E0" stroke="#000000" width="115" height="63"/>
	<text transform="matrix(1 0 0 1 207.0576 316.2896)"><tspan x="0" y="0" font-family="'ArialMT'" font-size="18">RS</tspan><tspan x="25.005" y="0" font-family="'ArialMT'" font-size="18" letter-spacing="-4">S</tspan><tspan x="32.025" y="0" font-family="'ArialMT'" font-size="18"> </tspan></text>
	<polyline fill="none" stroke="#000000" stroke-linejoin="round" stroke-miterlimit="10" points="230.313,277.589 230.313,250.589 
		273.313,250.589 	"/>
	<polygon fill-rule="evenodd" clip-rule="evenodd" points="312.313,229.589 315.313,223.589 318.313,229.589 	"/>
</g>
<g>
	
		<rect x="296.813" y="277.589" fill-rule="evenodd" clip-rule="evenodd" fill="#E0E0E0" stroke="#000000" width="105.604" height="63"/>
	<text transform="matrix(1 0 0 1 327.9985 315.8071)"><tspan x="0" y="0" font-family="'ArialMT'" font-size="18">SV</tspan><tspan x="24.012" y="0" font-family="'ArialMT'" font-size="18" letter-spacing="-4">G</tspan><tspan x="33.027" y="0" font-family="'ArialMT'" font-size="18"> </tspan></text>
	<polyline fill="none" stroke="#000000" stroke-linejoin="round" stroke-miterlimit="10" points="348.313,277.589 348.313,250.589 
		233.313,250.589 	"/>
</g>
<g>
	
		<rect x="410.512" y="277.589" fill-rule="evenodd" clip-rule="evenodd" fill="#E0E0E0" stroke="#000000" width="105.603" height="63"/>
	<text transform="matrix(1 0 0 1 431.6978 315.8071)" font-family="'ArialMT'" font-size="18">MathML</text>
	<polyline fill="none" stroke="#000000" stroke-linejoin="round" stroke-miterlimit="10" points="462.012,277.589 462.012,250.589 
		347.012,250.589 	"/>
</g>
<g>
	<rect x="497.812" y="160.589" fill-rule="evenodd" clip-rule="evenodd" fill="#E0E0E0" stroke="#000000" width="151" height="63"/>
	<text transform="matrix(1 0 0 1 541.8916 199.2896)"><tspan x="0" y="0" font-family="'ArialMT'" font-size="18">HTM</tspan><tspan x="38.988" y="0" font-family="'ArialMT'" font-size="18">L</tspan><tspan x="48.333" y="0" font-family="'ArialMT'" font-size="18"> </tspan><tspan x="53.334" y="0" font-family="'ArialMT'" font-size="18" letter-spacing="-4">5</tspan><tspan x="58.358" y="0" font-family="'ArialMT'" font-size="18"> </tspan></text>
</g>
</svg>
